# MagicaVoxel @ Ephtracy

# group
o 

# material
mtllib f22-3.mtl
usemtl palette

# normals
vn -1 0 0
vn 1 0 0
vn 0 0 1
vn 0 0 -1
vn 0 -1 0
vn 0 1 0

# texcoords
vt 0.337891 0.5
vt 0.505859 0.5
vt 0.673828 0.5
vt 0.974609 0.5
vt 0.978516 0.5
vt 0.982422 0.5
vt 0.986328 0.5

# verts
v 2.5 0.3 -0.6
v 2.5 0.3 -0.8
v 2.5 0.3 -1
v 2.5 0.3 -1.2
v 2.5 0.4 -0.6
v 2.5 0.4 -0.8
v 2.5 0.4 -1
v 2.5 0.4 -1.2
v 2.6 0.3 -1.2
v 2.6 0.3 -1.3
v 2.6 0.4 -1.2
v 2.6 0.4 -1.3
v 2.7 0.3 -1.3
v 2.7 0.3 -1.4
v 2.7 0.4 -1.3
v 2.7 0.4 -1.4
v 2.8 0.3 -1.4
v 2.8 0.3 -1.5
v 2.8 0.4 -1.4
v 2.8 0.4 -1.5
v 3.3 0.3 -0.6
v 3.3 0.3 -0.7
v 3.3 0.3 -1.4
v 3.3 0.3 -1.5
v 3.3 0.4 -0.6
v 3.3 0.4 -0.7
v 3.3 0.4 -1.4
v 3.3 0.4 -1.5
v 3.4 0.3 -0.7
v 3.4 0.3 -0.8
v 3.4 0.3 -1.1
v 3.4 0.3 -1.3
v 3.4 0.3 -1.4
v 3.4 0.4 -0.7
v 3.4 0.4 -0.8
v 3.4 0.4 -1.1
v 3.4 0.4 -1.3
v 3.4 0.4 -1.4
v 3.5 0.3 -0.8
v 3.5 0.3 -0.9
v 3.5 0.3 -1
v 3.5 0.3 -1.1
v 3.5 0.4 -0.8
v 3.5 0.4 -0.9
v 3.5 0.4 -1
v 3.5 0.4 -1.1
v 2.5 0.3 -0.6
v 2.5 0.4 -0.6
v 2.7 0.3 -0.6
v 2.7 0.4 -0.6
v 2.8 0.3 -0.6
v 2.8 0.4 -0.6
v 2.9 0.3 -0.6
v 2.9 0.4 -0.6
v 3.1 0.3 -0.6
v 3.1 0.4 -0.6
v 3.2 0.3 -0.6
v 3.2 0.4 -0.6
v 3.3 0.3 -0.6
v 3.3 0.4 -0.6
v 3.3 0.3 -0.7
v 3.3 0.4 -0.7
v 3.4 0.3 -0.7
v 3.4 0.4 -0.7
v 3.4 0.3 -0.8
v 3.4 0.4 -0.8
v 3.5 0.3 -0.8
v 3.5 0.4 -0.8
v 3.4 0.3 -1.1
v 3.4 0.4 -1.1
v 3.5 0.3 -1.1
v 3.5 0.4 -1.1
v 2.5 0.3 -1.2
v 2.5 0.4 -1.2
v 2.6 0.3 -1.2
v 2.6 0.4 -1.2
v 2.6 0.3 -1.3
v 2.6 0.4 -1.3
v 2.7 0.3 -1.3
v 2.7 0.4 -1.3
v 2.7 0.3 -1.4
v 2.7 0.4 -1.4
v 2.8 0.3 -1.4
v 2.8 0.4 -1.4
v 3.3 0.3 -1.4
v 3.3 0.4 -1.4
v 3.4 0.3 -1.4
v 3.4 0.4 -1.4
v 2.8 0.3 -1.5
v 2.8 0.4 -1.5
v 2.9 0.3 -1.5
v 2.9 0.4 -1.5
v 3.3 0.3 -1.5
v 3.3 0.4 -1.5
v 2.5 0.3 -0.6
v 2.7 0.3 -0.6
v 2.8 0.3 -0.6
v 2.9 0.3 -0.6
v 3.1 0.3 -0.6
v 3.2 0.3 -0.6
v 3.3 0.3 -0.6
v 2.7 0.3 -0.7
v 2.8 0.3 -0.7
v 2.9 0.3 -0.7
v 3.1 0.3 -0.7
v 3.2 0.3 -0.7
v 3.3 0.3 -0.7
v 3.4 0.3 -0.7
v 2.5 0.3 -0.8
v 2.8 0.3 -0.8
v 3.3 0.3 -0.8
v 3.4 0.3 -0.8
v 3.5 0.3 -0.8
v 2.8 0.3 -0.9
v 3 0.3 -0.9
v 3.4 0.3 -0.9
v 3.5 0.3 -0.9
v 2.5 0.3 -1
v 2.6 0.3 -1
v 2.8 0.3 -1
v 3.4 0.3 -1
v 3.5 0.3 -1
v 2.6 0.3 -1.1
v 2.7 0.3 -1.1
v 2.9 0.3 -1.1
v 3 0.3 -1.1
v 3.4 0.3 -1.1
v 3.5 0.3 -1.1
v 2.5 0.3 -1.2
v 2.6 0.3 -1.2
v 2.7 0.3 -1.2
v 2.8 0.3 -1.2
v 2.9 0.3 -1.2
v 2.6 0.3 -1.3
v 2.7 0.3 -1.3
v 2.8 0.3 -1.3
v 3.3 0.3 -1.3
v 3.4 0.3 -1.3
v 2.7 0.3 -1.4
v 2.8 0.3 -1.4
v 2.9 0.3 -1.4
v 3.3 0.3 -1.4
v 3.4 0.3 -1.4
v 2.8 0.3 -1.5
v 2.9 0.3 -1.5
v 3.3 0.3 -1.5
v 2.5 0.4 -0.6
v 2.7 0.4 -0.6
v 2.8 0.4 -0.6
v 2.9 0.4 -0.6
v 3.1 0.4 -0.6
v 3.2 0.4 -0.6
v 3.3 0.4 -0.6
v 2.7 0.4 -0.7
v 2.8 0.4 -0.7
v 2.9 0.4 -0.7
v 3.1 0.4 -0.7
v 3.2 0.4 -0.7
v 3.3 0.4 -0.7
v 3.4 0.4 -0.7
v 2.5 0.4 -0.8
v 2.8 0.4 -0.8
v 3.3 0.4 -0.8
v 3.4 0.4 -0.8
v 3.5 0.4 -0.8
v 2.8 0.4 -0.9
v 3 0.4 -0.9
v 3.4 0.4 -0.9
v 3.5 0.4 -0.9
v 2.5 0.4 -1
v 2.6 0.4 -1
v 2.8 0.4 -1
v 3.4 0.4 -1
v 3.5 0.4 -1
v 2.6 0.4 -1.1
v 2.7 0.4 -1.1
v 2.9 0.4 -1.1
v 3 0.4 -1.1
v 3.4 0.4 -1.1
v 3.5 0.4 -1.1
v 2.5 0.4 -1.2
v 2.6 0.4 -1.2
v 2.7 0.4 -1.2
v 2.8 0.4 -1.2
v 2.9 0.4 -1.2
v 2.6 0.4 -1.3
v 2.7 0.4 -1.3
v 2.8 0.4 -1.3
v 3.3 0.4 -1.3
v 3.4 0.4 -1.3
v 2.7 0.4 -1.4
v 2.8 0.4 -1.4
v 2.9 0.4 -1.4
v 3.3 0.4 -1.4
v 3.4 0.4 -1.4
v 2.8 0.4 -1.5
v 2.9 0.4 -1.5
v 3.3 0.4 -1.5

# faces
f 5/6/1 2/6/1 1/6/1
f 6/7/1 3/7/1 2/7/1
f 6/6/1 2/6/1 5/6/1
f 7/1/1 4/1/1 3/1/1
f 7/7/1 3/7/1 6/7/1
f 8/1/1 4/1/1 7/1/1
f 11/5/1 10/5/1 9/5/1
f 12/5/1 10/5/1 11/5/1
f 15/1/1 14/1/1 13/1/1
f 16/1/1 14/1/1 15/1/1
f 19/4/1 18/4/1 17/4/1
f 20/4/1 18/4/1 19/4/1
f 21/4/2 22/4/2 25/4/2
f 25/4/2 22/4/2 26/4/2
f 23/2/2 24/2/2 27/2/2
f 27/2/2 24/2/2 28/2/2
f 29/4/2 30/4/2 34/4/2
f 34/4/2 30/4/2 35/4/2
f 31/6/2 32/6/2 36/6/2
f 32/4/2 33/4/2 37/4/2
f 36/6/2 32/6/2 37/6/2
f 37/4/2 33/4/2 38/4/2
f 39/5/2 40/5/2 43/5/2
f 40/6/2 41/6/2 44/6/2
f 43/5/2 40/5/2 44/5/2
f 41/1/2 42/1/2 45/1/2
f 44/6/2 41/6/2 45/6/2
f 45/1/2 42/1/2 46/1/2
f 49/6/3 48/6/3 47/6/3
f 50/6/3 48/6/3 49/6/3
f 51/7/3 50/7/3 49/7/3
f 52/7/3 50/7/3 51/7/3
f 53/6/3 52/6/3 51/6/3
f 54/6/3 52/6/3 53/6/3
f 55/2/3 54/2/3 53/2/3
f 56/2/3 54/2/3 55/2/3
f 57/6/3 56/6/3 55/6/3
f 58/6/3 56/6/3 57/6/3
f 59/4/3 58/4/3 57/4/3
f 60/4/3 58/4/3 59/4/3
f 63/4/3 62/4/3 61/4/3
f 64/4/3 62/4/3 63/4/3
f 67/5/3 66/5/3 65/5/3
f 68/5/3 66/5/3 67/5/3
f 69/1/4 70/1/4 71/1/4
f 71/1/4 70/1/4 72/1/4
f 73/1/4 74/1/4 75/1/4
f 75/1/4 74/1/4 76/1/4
f 77/5/4 78/5/4 79/5/4
f 79/5/4 78/5/4 80/5/4
f 81/1/4 82/1/4 83/1/4
f 83/1/4 82/1/4 84/1/4
f 85/4/4 86/4/4 87/4/4
f 87/4/4 86/4/4 88/4/4
f 89/4/4 90/4/4 91/4/4
f 91/4/4 90/4/4 92/4/4
f 91/2/4 92/2/4 93/2/4
f 93/2/4 92/2/4 94/2/4
f 102/6/5 96/6/5 95/6/5
f 102/7/5 97/7/5 96/7/5
f 103/6/5 98/6/5 97/6/5
f 103/7/5 97/7/5 102/7/5
f 104/2/5 99/2/5 98/2/5
f 104/6/5 98/6/5 103/6/5
f 105/6/5 100/6/5 99/6/5
f 105/2/5 99/2/5 104/2/5
f 106/4/5 101/4/5 100/4/5
f 106/6/5 100/6/5 105/6/5
f 107/4/5 101/4/5 106/4/5
f 109/6/5 105/6/5 104/6/5
f 109/6/5 104/6/5 103/6/5
f 109/6/5 107/6/5 106/6/5
f 109/6/5 106/6/5 105/6/5
f 109/6/5 103/6/5 102/6/5
f 109/6/5 102/6/5 95/6/5
f 110/6/5 107/6/5 109/6/5
f 111/4/5 108/4/5 107/4/5
f 111/6/5 107/6/5 110/6/5
f 112/4/5 108/4/5 111/4/5
f 114/7/5 110/7/5 109/7/5
f 114/6/5 111/6/5 110/6/5
f 114/6/5 112/6/5 111/6/5
f 115/6/5 112/6/5 114/6/5
f 116/5/5 113/5/5 112/5/5
f 116/6/5 112/6/5 115/6/5
f 117/5/5 113/5/5 116/5/5
f 118/7/5 115/7/5 114/7/5
f 118/7/5 114/7/5 109/7/5
f 119/7/5 115/7/5 118/7/5
f 120/7/5 115/7/5 119/7/5
f 121/6/5 117/6/5 116/6/5
f 121/6/5 116/6/5 115/6/5
f 122/6/5 117/6/5 121/6/5
f 123/3/5 120/3/5 119/3/5
f 123/1/5 119/1/5 118/1/5
f 124/3/5 120/3/5 123/3/5
f 125/7/5 115/7/5 120/7/5
f 126/6/5 121/6/5 115/6/5
f 126/7/5 115/7/5 125/7/5
f 127/1/5 122/1/5 121/1/5
f 127/6/5 121/6/5 126/6/5
f 128/1/5 122/1/5 127/1/5
f 129/1/5 123/1/5 118/1/5
f 130/7/5 124/7/5 123/7/5
f 130/1/5 123/1/5 129/1/5
f 131/3/5 120/3/5 124/3/5
f 131/7/5 124/7/5 130/7/5
f 132/7/5 125/7/5 120/7/5
f 132/3/5 120/3/5 131/3/5
f 133/6/5 126/6/5 125/6/5
f 133/7/5 125/7/5 132/7/5
f 133/6/5 127/6/5 126/6/5
f 134/5/5 131/5/5 130/5/5
f 135/6/5 132/6/5 131/6/5
f 135/5/5 131/5/5 134/5/5
f 135/6/5 133/6/5 132/6/5
f 136/6/5 133/6/5 135/6/5
f 137/6/5 127/6/5 133/6/5
f 137/6/5 133/6/5 136/6/5
f 138/6/5 127/6/5 137/6/5
f 139/1/5 136/1/5 135/1/5
f 140/6/5 137/6/5 136/6/5
f 140/1/5 136/1/5 139/1/5
f 141/6/5 137/6/5 140/6/5
f 142/4/5 138/4/5 137/4/5
f 142/6/5 137/6/5 141/6/5
f 143/4/5 138/4/5 142/4/5
f 144/4/5 141/4/5 140/4/5
f 145/2/5 142/2/5 141/2/5
f 145/4/5 141/4/5 144/4/5
f 146/2/5 142/2/5 145/2/5
f 147/6/6 148/6/6 154/6/6
f 148/7/6 149/7/6 154/7/6
f 149/6/6 150/6/6 155/6/6
f 154/7/6 149/7/6 155/7/6
f 150/2/6 151/2/6 156/2/6
f 155/6/6 150/6/6 156/6/6
f 151/6/6 152/6/6 157/6/6
f 156/2/6 151/2/6 157/2/6
f 152/4/6 153/4/6 158/4/6
f 157/6/6 152/6/6 158/6/6
f 158/4/6 153/4/6 159/4/6
f 156/6/6 157/6/6 161/6/6
f 155/6/6 156/6/6 161/6/6
f 158/6/6 159/6/6 161/6/6
f 157/6/6 158/6/6 161/6/6
f 154/6/6 155/6/6 161/6/6
f 147/6/6 154/6/6 161/6/6
f 161/6/6 159/6/6 162/6/6
f 159/4/6 160/4/6 163/4/6
f 162/6/6 159/6/6 163/6/6
f 163/4/6 160/4/6 164/4/6
f 161/7/6 162/7/6 166/7/6
f 162/6/6 163/6/6 166/6/6
f 163/6/6 164/6/6 166/6/6
f 166/6/6 164/6/6 167/6/6
f 164/5/6 165/5/6 168/5/6
f 167/6/6 164/6/6 168/6/6
f 168/5/6 165/5/6 169/5/6
f 166/7/6 167/7/6 170/7/6
f 161/7/6 166/7/6 170/7/6
f 170/7/6 167/7/6 171/7/6
f 171/7/6 167/7/6 172/7/6
f 168/6/6 169/6/6 173/6/6
f 167/6/6 168/6/6 173/6/6
f 173/6/6 169/6/6 174/6/6
f 171/3/6 172/3/6 175/3/6
f 170/1/6 171/1/6 175/1/6
f 175/3/6 172/3/6 176/3/6
f 172/7/6 167/7/6 177/7/6
f 167/6/6 173/6/6 178/6/6
f 177/7/6 167/7/6 178/7/6
f 173/1/6 174/1/6 179/1/6
f 178/6/6 173/6/6 179/6/6
f 179/1/6 174/1/6 180/1/6
f 170/1/6 175/1/6 181/1/6
f 175/7/6 176/7/6 182/7/6
f 181/1/6 175/1/6 182/1/6
f 176/3/6 172/3/6 183/3/6
f 182/7/6 176/7/6 183/7/6
f 172/7/6 177/7/6 184/7/6
f 183/3/6 172/3/6 184/3/6
f 177/6/6 178/6/6 185/6/6
f 184/7/6 177/7/6 185/7/6
f 178/6/6 179/6/6 185/6/6
f 182/5/6 183/5/6 186/5/6
f 183/6/6 184/6/6 187/6/6
f 186/5/6 183/5/6 187/5/6
f 184/6/6 185/6/6 187/6/6
f 187/6/6 185/6/6 188/6/6
f 185/6/6 179/6/6 189/6/6
f 188/6/6 185/6/6 189/6/6
f 189/6/6 179/6/6 190/6/6
f 187/1/6 188/1/6 191/1/6
f 188/6/6 189/6/6 192/6/6
f 191/1/6 188/1/6 192/1/6
f 192/6/6 189/6/6 193/6/6
f 189/4/6 190/4/6 194/4/6
f 193/6/6 189/6/6 194/6/6
f 194/4/6 190/4/6 195/4/6
f 192/4/6 193/4/6 196/4/6
f 193/2/6 194/2/6 197/2/6
f 196/4/6 193/4/6 197/4/6
f 197/2/6 194/2/6 198/2/6
