# MagicaVoxel @ Ephtracy

# group
o 

# material
mtllib f22-0.mtl
usemtl palette

# normals
vn -1 0 0
vn 1 0 0
vn 0 0 1
vn 0 0 -1
vn 0 -1 0
vn 0 1 0

# texcoords
vt 0.505859 0.5
vt 0.982422 0.5
vt 0.986328 0.5

# verts
v 2 0.2 -1.1
v 2 0.2 -1.6
v 2 0.2 -2
v 2 0.3 -1.1
v 2 0.3 -1.6
v 2 0.3 -2
v 2.1 0.2 -1.7
v 2.1 0.2 -2
v 2.1 0.3 -1.7
v 2.1 0.3 -2
v 2.2 0.2 -1.4
v 2.2 0.2 -1.6
v 2.2 0.2 -1.7
v 2.2 0.3 -1.4
v 2.2 0.3 -1.6
v 2.2 0.3 -1.7
v 2.3 0.2 -1.1
v 2.3 0.2 -1.4
v 2.3 0.3 -1.1
v 2.3 0.3 -1.4
v 2 0.2 -1.1
v 2 0.3 -1.1
v 2.3 0.2 -1.1
v 2.3 0.3 -1.1
v 2.2 0.2 -1.4
v 2.2 0.3 -1.4
v 2.3 0.2 -1.4
v 2.3 0.3 -1.4
v 2.1 0.2 -1.7
v 2.1 0.3 -1.7
v 2.2 0.2 -1.7
v 2.2 0.3 -1.7
v 2 0.2 -2
v 2 0.3 -2
v 2.1 0.2 -2
v 2.1 0.3 -2
v 2 0.2 -1.1
v 2.3 0.2 -1.1
v 2.2 0.2 -1.4
v 2.3 0.2 -1.4
v 2 0.2 -1.6
v 2.1 0.2 -1.6
v 2.2 0.2 -1.6
v 2.1 0.2 -1.7
v 2.2 0.2 -1.7
v 2 0.2 -2
v 2.1 0.2 -2
v 2 0.3 -1.1
v 2.3 0.3 -1.1
v 2.2 0.3 -1.4
v 2.3 0.3 -1.4
v 2 0.3 -1.6
v 2.1 0.3 -1.6
v 2.2 0.3 -1.6
v 2.1 0.3 -1.7
v 2.2 0.3 -1.7
v 2 0.3 -2
v 2.1 0.3 -2

# faces
f 4/2/1 2/2/1 1/2/1
f 5/3/1 3/3/1 2/3/1
f 5/2/1 2/2/1 4/2/1
f 6/3/1 3/3/1 5/3/1
f 7/3/2 8/3/2 9/3/2
f 9/3/2 8/3/2 10/3/2
f 11/2/2 12/2/2 14/2/2
f 12/1/2 13/1/2 15/1/2
f 14/2/2 12/2/2 15/2/2
f 15/1/2 13/1/2 16/1/2
f 17/2/2 18/2/2 19/2/2
f 19/2/2 18/2/2 20/2/2
f 23/2/3 22/2/3 21/2/3
f 24/2/3 22/2/3 23/2/3
f 25/2/4 26/2/4 27/2/4
f 27/2/4 26/2/4 28/2/4
f 29/1/4 30/1/4 31/1/4
f 31/1/4 30/1/4 32/1/4
f 33/3/4 34/3/4 35/3/4
f 35/3/4 34/3/4 36/3/4
f 39/2/5 38/2/5 37/2/5
f 40/2/5 38/2/5 39/2/5
f 41/2/5 39/2/5 37/2/5
f 42/2/5 39/2/5 41/2/5
f 43/2/5 39/2/5 42/2/5
f 44/3/5 42/3/5 41/3/5
f 44/1/5 43/1/5 42/1/5
f 45/1/5 43/1/5 44/1/5
f 46/3/5 44/3/5 41/3/5
f 47/3/5 44/3/5 46/3/5
f 48/2/6 49/2/6 50/2/6
f 50/2/6 49/2/6 51/2/6
f 48/2/6 50/2/6 52/2/6
f 52/2/6 50/2/6 53/2/6
f 53/2/6 50/2/6 54/2/6
f 52/3/6 53/3/6 55/3/6
f 53/1/6 54/1/6 55/1/6
f 55/1/6 54/1/6 56/1/6
f 52/3/6 55/3/6 57/3/6
f 57/3/6 55/3/6 58/3/6
