# MagicaVoxel @ Ephtracy

# group
o 

# material
mtllib f22-4.mtl
usemtl palette

# normals
vn -1 0 0
vn 1 0 0
vn 0 0 1
vn 0 0 -1
vn 0 -1 0
vn 0 1 0

# texcoords
vt 0.974609 0.5
vt 0.978516 0.5
vt 0.982422 0.5

# verts
v 3 0.6 -0.4
v 3 0.6 -0.5
v 3 0.7 -0.4
v 3 0.7 -0.5
v 3 0.8 -0.4
v 3 0.8 -0.5
v 3 1 -0.4
v 3 1 -0.5
v 3.1 0.6 -0.4
v 3.1 0.6 -0.5
v 3.1 0.7 -0.4
v 3.1 0.7 -0.5
v 3.1 0.8 -0.4
v 3.1 0.8 -0.5
v 3.2 0.8 -0.4
v 3.2 0.8 -0.5
v 3.2 0.9 -0.4
v 3.2 0.9 -0.5
v 3.2 1 -0.4
v 3.2 1 -0.5
v 3 0.6 -0.4
v 3 0.7 -0.4
v 3 0.8 -0.4
v 3 1 -0.4
v 3.1 0.6 -0.4
v 3.1 0.7 -0.4
v 3.1 0.8 -0.4
v 3.1 0.9 -0.4
v 3.1 1 -0.4
v 3.2 0.8 -0.4
v 3.2 0.9 -0.4
v 3.2 1 -0.4
v 3 0.6 -0.5
v 3 0.7 -0.5
v 3 0.8 -0.5
v 3 1 -0.5
v 3.1 0.6 -0.5
v 3.1 0.7 -0.5
v 3.1 0.8 -0.5
v 3.1 0.9 -0.5
v 3.1 1 -0.5
v 3.2 0.8 -0.5
v 3.2 0.9 -0.5
v 3.2 1 -0.5
v 3 0.6 -0.4
v 3.1 0.6 -0.4
v 3 0.6 -0.5
v 3.1 0.6 -0.5
v 3.1 0.8 -0.4
v 3.2 0.8 -0.4
v 3.1 0.8 -0.5
v 3.2 0.8 -0.5
v 3 1 -0.4
v 3.1 1 -0.4
v 3.2 1 -0.4
v 3 1 -0.5
v 3.1 1 -0.5
v 3.2 1 -0.5

# faces
f 3/2/1 2/2/1 1/2/1
f 4/2/1 2/2/1 3/2/1
f 5/1/1 4/1/1 3/1/1
f 6/1/1 4/1/1 5/1/1
f 7/3/1 6/3/1 5/3/1
f 8/3/1 6/3/1 7/3/1
f 9/2/2 10/2/2 11/2/2
f 11/2/2 10/2/2 12/2/2
f 11/1/2 12/1/2 13/1/2
f 13/1/2 12/1/2 14/1/2
f 15/1/2 16/1/2 17/1/2
f 17/1/2 16/1/2 18/1/2
f 17/2/2 18/2/2 19/2/2
f 19/2/2 18/2/2 20/2/2
f 25/2/3 22/2/3 21/2/3
f 26/1/3 23/1/3 22/1/3
f 26/2/3 22/2/3 25/2/3
f 27/3/3 24/3/3 23/3/3
f 27/1/3 23/1/3 26/1/3
f 28/3/3 24/3/3 27/3/3
f 29/3/3 24/3/3 28/3/3
f 30/1/3 28/1/3 27/1/3
f 31/2/3 29/2/3 28/2/3
f 31/1/3 28/1/3 30/1/3
f 32/2/3 29/2/3 31/2/3
f 33/2/4 34/2/4 37/2/4
f 34/1/4 35/1/4 38/1/4
f 37/2/4 34/2/4 38/2/4
f 35/3/4 36/3/4 39/3/4
f 38/1/4 35/1/4 39/1/4
f 39/3/4 36/3/4 40/3/4
f 40/3/4 36/3/4 41/3/4
f 39/1/4 40/1/4 42/1/4
f 40/2/4 41/2/4 43/2/4
f 42/1/4 40/1/4 43/1/4
f 43/2/4 41/2/4 44/2/4
f 47/2/5 46/2/5 45/2/5
f 48/2/5 46/2/5 47/2/5
f 51/1/5 50/1/5 49/1/5
f 52/1/5 50/1/5 51/1/5
f 53/3/6 54/3/6 56/3/6
f 54/2/6 55/2/6 57/2/6
f 56/3/6 54/3/6 57/3/6
f 57/2/6 55/2/6 58/2/6
