# MagicaVoxel @ Ephtracy

# group
o 

# material
mtllib f22-5.mtl
usemtl palette

# normals
vn -1 0 0
vn 1 0 0
vn 0 0 1
vn 0 0 -1
vn 0 -1 0
vn 0 1 0

# texcoords
vt 0.978516 0.5
vt 0.982422 0.5

# verts
v 3 0.6 0.5
v 3 0.6 0.4
v 3 0.8 0.5
v 3 0.8 0.4
v 3 1 0.5
v 3 1 0.4
v 3.1 0.6 0.5
v 3.1 0.6 0.4
v 3.1 0.8 0.5
v 3.1 0.8 0.4
v 3.2 0.8 0.5
v 3.2 0.8 0.4
v 3.2 1 0.5
v 3.2 1 0.4
v 3 0.6 0.5
v 3 0.8 0.5
v 3 1 0.5
v 3.1 0.6 0.5
v 3.1 0.8 0.5
v 3.1 1 0.5
v 3.2 0.8 0.5
v 3.2 1 0.5
v 3 0.6 0.4
v 3 0.8 0.4
v 3 1 0.4
v 3.1 0.6 0.4
v 3.1 0.8 0.4
v 3.1 1 0.4
v 3.2 0.8 0.4
v 3.2 1 0.4
v 3 0.6 0.5
v 3.1 0.6 0.5
v 3 0.6 0.4
v 3.1 0.6 0.4
v 3.1 0.8 0.5
v 3.2 0.8 0.5
v 3.1 0.8 0.4
v 3.2 0.8 0.4
v 3 1 0.5
v 3.1 1 0.5
v 3.2 1 0.5
v 3 1 0.4
v 3.1 1 0.4
v 3.2 1 0.4

# faces
f 3/1/1 2/1/1 1/1/1
f 4/1/1 2/1/1 3/1/1
f 5/2/1 4/2/1 3/2/1
f 6/2/1 4/2/1 5/2/1
f 7/1/2 8/1/2 9/1/2
f 9/1/2 8/1/2 10/1/2
f 11/1/2 12/1/2 13/1/2
f 13/1/2 12/1/2 14/1/2
f 18/1/3 16/1/3 15/1/3
f 19/2/3 17/2/3 16/2/3
f 19/1/3 16/1/3 18/1/3
f 20/2/3 17/2/3 19/2/3
f 21/1/3 20/1/3 19/1/3
f 22/1/3 20/1/3 21/1/3
f 23/1/4 24/1/4 26/1/4
f 24/2/4 25/2/4 27/2/4
f 26/1/4 24/1/4 27/1/4
f 27/2/4 25/2/4 28/2/4
f 27/1/4 28/1/4 29/1/4
f 29/1/4 28/1/4 30/1/4
f 33/1/5 32/1/5 31/1/5
f 34/1/5 32/1/5 33/1/5
f 37/1/5 36/1/5 35/1/5
f 38/1/5 36/1/5 37/1/5
f 39/2/6 40/2/6 42/2/6
f 40/1/6 41/1/6 43/1/6
f 42/2/6 40/2/6 43/2/6
f 43/1/6 41/1/6 44/1/6
