# MagicaVoxel @ Ephtracy

# group
o 

# material
mtllib f22-1.mtl
usemtl palette

# normals
vn -1 0 0
vn 1 0 0
vn 0 0 1
vn 0 0 -1
vn 0 -1 0
vn 0 1 0

# texcoords
vt 0.505859 0.5
vt 0.673828 0.5
vt 0.982422 0.5
vt 0.986328 0.5

# verts
v 2 0.2 2
v 2 0.2 1.9
v 2 0.2 1.7
v 2 0.2 1.3
v 2 0.2 1.1
v 2 0.3 2
v 2 0.3 1.9
v 2 0.3 1.7
v 2 0.3 1.3
v 2 0.3 1.1
v 2.1 0.2 2
v 2.1 0.2 1.9
v 2.1 0.2 1.7
v 2.1 0.3 2
v 2.1 0.3 1.9
v 2.1 0.3 1.7
v 2.2 0.2 1.7
v 2.2 0.2 1.6
v 2.2 0.2 1.4
v 2.2 0.3 1.7
v 2.2 0.3 1.6
v 2.2 0.3 1.4
v 2.3 0.2 1.4
v 2.3 0.2 1.1
v 2.3 0.3 1.4
v 2.3 0.3 1.1
v 2 0.2 2
v 2 0.3 2
v 2.1 0.2 2
v 2.1 0.3 2
v 2.1 0.2 1.7
v 2.1 0.3 1.7
v 2.2 0.2 1.7
v 2.2 0.3 1.7
v 2.2 0.2 1.4
v 2.2 0.3 1.4
v 2.3 0.2 1.4
v 2.3 0.3 1.4
v 2 0.2 1.1
v 2 0.3 1.1
v 2.1 0.2 1.1
v 2.1 0.3 1.1
v 2.3 0.2 1.1
v 2.3 0.3 1.1
v 2 0.2 2
v 2.1 0.2 2
v 2 0.2 1.9
v 2.1 0.2 1.9
v 2 0.2 1.7
v 2.1 0.2 1.7
v 2.2 0.2 1.7
v 2.1 0.2 1.6
v 2.2 0.2 1.6
v 2.1 0.2 1.4
v 2.2 0.2 1.4
v 2.3 0.2 1.4
v 2 0.2 1.3
v 2.1 0.2 1.3
v 2.2 0.2 1.3
v 2 0.2 1.1
v 2.1 0.2 1.1
v 2.3 0.2 1.1
v 2 0.3 2
v 2.1 0.3 2
v 2 0.3 1.9
v 2.1 0.3 1.9
v 2 0.3 1.7
v 2.1 0.3 1.7
v 2.2 0.3 1.7
v 2.1 0.3 1.6
v 2.2 0.3 1.6
v 2.1 0.3 1.4
v 2.2 0.3 1.4
v 2.3 0.3 1.4
v 2 0.3 1.3
v 2.1 0.3 1.3
v 2.2 0.3 1.3
v 2 0.3 1.1
v 2.1 0.3 1.1
v 2.3 0.3 1.1

# faces
f 6/4/1 2/4/1 1/4/1
f 7/3/1 3/3/1 2/3/1
f 7/4/1 2/4/1 6/4/1
f 8/4/1 4/4/1 3/4/1
f 8/3/1 3/3/1 7/3/1
f 9/2/1 5/2/1 4/2/1
f 9/4/1 4/4/1 8/4/1
f 10/2/1 5/2/1 9/2/1
f 11/4/2 12/4/2 14/4/2
f 12/3/2 13/3/2 15/3/2
f 14/4/2 12/4/2 15/4/2
f 15/3/2 13/3/2 16/3/2
f 17/1/2 18/1/2 20/1/2
f 18/4/2 19/4/2 21/4/2
f 20/1/2 18/1/2 21/1/2
f 21/4/2 19/4/2 22/4/2
f 23/4/2 24/4/2 25/4/2
f 25/4/2 24/4/2 26/4/2
f 29/4/3 28/4/3 27/4/3
f 30/4/3 28/4/3 29/4/3
f 33/1/3 32/1/3 31/1/3
f 34/1/3 32/1/3 33/1/3
f 37/4/3 36/4/3 35/4/3
f 38/4/3 36/4/3 37/4/3
f 39/2/4 40/2/4 41/2/4
f 41/2/4 40/2/4 42/2/4
f 41/4/4 42/4/4 43/4/4
f 43/4/4 42/4/4 44/4/4
f 47/4/5 46/4/5 45/4/5
f 48/4/5 46/4/5 47/4/5
f 49/3/5 48/3/5 47/3/5
f 50/3/5 48/3/5 49/3/5
f 52/4/5 50/4/5 49/4/5
f 52/1/5 51/1/5 50/1/5
f 53/1/5 51/1/5 52/1/5
f 54/4/5 52/4/5 49/4/5
f 54/4/5 53/4/5 52/4/5
f 55/4/5 53/4/5 54/4/5
f 57/4/5 54/4/5 49/4/5
f 58/2/5 55/2/5 54/2/5
f 58/4/5 54/4/5 57/4/5
f 59/4/5 56/4/5 55/4/5
f 59/2/5 55/2/5 58/2/5
f 60/2/5 58/2/5 57/2/5
f 61/4/5 59/4/5 58/4/5
f 61/2/5 58/2/5 60/2/5
f 62/4/5 56/4/5 59/4/5
f 62/4/5 59/4/5 61/4/5
f 63/4/6 64/4/6 65/4/6
f 65/4/6 64/4/6 66/4/6
f 65/3/6 66/3/6 67/3/6
f 67/3/6 66/3/6 68/3/6
f 67/4/6 68/4/6 70/4/6
f 68/1/6 69/1/6 70/1/6
f 70/1/6 69/1/6 71/1/6
f 67/4/6 70/4/6 72/4/6
f 70/4/6 71/4/6 72/4/6
f 72/4/6 71/4/6 73/4/6
f 67/4/6 72/4/6 75/4/6
f 72/2/6 73/2/6 76/2/6
f 75/4/6 72/4/6 76/4/6
f 73/4/6 74/4/6 77/4/6
f 76/2/6 73/2/6 77/2/6
f 75/2/6 76/2/6 78/2/6
f 76/4/6 77/4/6 79/4/6
f 78/2/6 76/2/6 79/2/6
f 77/4/6 74/4/6 80/4/6
f 79/4/6 77/4/6 80/4/6
